<svg width="32" height="32" viewBox="0 0 32 32" fill="none" xmlns="http://www.w3.org/2000/svg">
<path d="M6.90503 5.6725C7.57378 3.41125 8.66878 1.9375 9.90628 1.9375C11.1438 1.9375 12.2388 3.41125 12.9063 5.6725" stroke="#0D4EA6" stroke-width="2" stroke-linecap="round" stroke-linejoin="round"/>
<path d="M12.9063 16.015C12.2388 18.2763 11.1438 19.75 9.90625 19.75C8.66875 19.75 7.57375 18.2763 6.90625 16.015" stroke="#0D4EA6" stroke-width="2" stroke-linecap="round" stroke-linejoin="round"/>
<path d="M11.7325 14.0275C16.015 11.5725 18.67 8.15625 17.6613 6.3975C16.6525 4.6375 12.3625 5.2025 8.08002 7.65875C3.79752 10.1125 1.14252 13.53 2.15252 15.29C3.16002 17.0487 7.45002 16.4837 11.7325 14.0275Z" stroke="#0D4EA6" stroke-width="2" stroke-linecap="round" stroke-linejoin="round"/>
<path d="M17.66 15.29C18.6687 13.5312 16.015 10.115 11.7325 7.65871C7.44873 5.20371 3.15998 4.63871 2.14998 6.39746C1.14123 8.15621 3.79623 11.5725 8.07873 14.0287C12.3612 16.4837 16.65 17.0487 17.6587 15.2912L17.66 15.29Z" stroke="#0D4EA6" stroke-width="2" stroke-linecap="round" stroke-linejoin="round"/>
<path d="M7.5625 30.0625V25.375" stroke="#0D4EA6" stroke-width="2" stroke-linecap="round" stroke-linejoin="round"/>
<path d="M15.5312 1.9375C24.455 1.9375 26.3813 9.285 29.5625 17.5375C29.6173 17.6796 29.6367 17.8328 29.619 17.9841C29.6013 18.1353 29.547 18.2799 29.4608 18.4055C29.3747 18.531 29.2592 18.6337 29.1245 18.7046C28.9898 18.7755 28.8398 18.8126 28.6875 18.8125H26.3125V22.5625C26.3125 23.5571 25.9174 24.5109 25.2141 25.2142C24.5109 25.9174 23.5571 26.3125 22.5625 26.3125H20.6875V30.0625" stroke="#0D4EA6" stroke-width="2" stroke-linecap="round" stroke-linejoin="round"/>
<path d="M9.90625 11.3125C9.78193 11.3125 9.6627 11.2631 9.57479 11.1752C9.48689 11.0873 9.4375 10.9681 9.4375 10.8438C9.4375 10.7194 9.48689 10.6002 9.57479 10.5123C9.6627 10.4244 9.78193 10.375 9.90625 10.375" stroke="#0D4EA6" stroke-width="2"/>
<path d="M9.90625 11.3125C10.0306 11.3125 10.1498 11.2631 10.2377 11.1752C10.3256 11.0873 10.375 10.9681 10.375 10.8438C10.375 10.7194 10.3256 10.6002 10.2377 10.5123C10.1498 10.4244 10.0306 10.375 9.90625 10.375" stroke="#0D4EA6" stroke-width="2"/>
</svg>
